Coordinates
version=1
nRows=9
nColumns=63
inDegrees=yes

Units are S.I. units (second, meters, Newtons, ...)
If the header above contains a line with 'inDegrees', this indicates whether rotational values are in degrees (yes) or radians (no).

endheader
time	pelvis_tilt	pelvis_list	pelvis_rotation	pelvis_tx	pelvis_ty	pelvis_tz	hip_flexion_r	hip_adduction_r	hip_rotation_r	knee_angle_r	knee_angle_r_beta	ankle_angle_r	subtalar_angle_r	mtp_angle_r	hip_flexion_l	hip_adduction_l	hip_rotation_l	knee_angle_l	knee_angle_l_beta	ankle_angle_l	subtalar_angle_l	mtp_angle_l	L5_S1_Flex_Ext	L5_S1_Lat_Bending	L5_S1_axial_rotation	L4_L5_Flex_Ext	L4_L5_Lat_Bending	L4_L5_axial_rotation	L3_L4_Flex_Ext	L3_L4_Lat_Bending	L3_L4_axial_rotation	L2_L3_Flex_Ext	L2_L3_Lat_Bending	L2_L3_axial_rotation	L1_L2_Flex_Ext	L1_L2_Lat_Bending	L1_L2_axial_rotation	L1_T12_Flex_Ext	L1_T12_Lat_Bending	L1_T12_axial_rotation	Abs_r3	Abs_r2	Abs_r1	Abs_t1	Abs_t2	neck_flexion	neck_bending	neck_rotation	arm_flex_r	arm_add_r	arm_rot_r	elbow_flex_r	pro_sup_r	wrist_flex_r	wrist_dev_r	arm_flex_l	arm_add_l	arm_rot_l	elbow_flex_l	pro_sup_l	wrist_flex_l	wrist_dev_l
      0.00000000	     -5.10591831	     -3.27042571	     98.01485976	      0.23345528	      0.73045647	      0.74742260	      4.87368942	     -2.61403481	    -15.50471325	      1.34375998	      0.02345304	     28.92813489	      8.91294373	      0.00000000	      8.48748325	      3.08252079	      6.87394241	      2.26683000	      0.03956365	     29.01577994	      5.43384587	      0.00000000	      0.38620490	     -0.11678271	     -1.99191243	      0.71722112	     -0.15532101	     -2.11640696	      0.63449603	     -0.28394549	     -2.11640696	      0.44139358	     -0.28394549	     -1.74292338	      0.35862987	     -0.23814331	     -1.61842885	      0.22067748	     -0.18089642	     -1.49393432	      2.75862299	     -1.32106940	    -11.07841937	      0.00000000	      0.00000000	     27.65398939	      3.43907046	     19.60684143	     19.12942519	     -8.49712870	     63.44052591	     45.53513433	     60.94475726	      5.20871358	     12.17701857	      6.19775179	    -10.39703487	     35.67646472	     56.82387742	     39.89957587	     -6.52287655	     13.36060543
      0.01666667	     -5.25434509	     -3.19722973	     97.22955836	      0.23498762	      0.73001933	      0.74815924	      4.98711645	     -2.74660827	    -15.69158706	      1.97064999	      0.03439433	     27.37371150	      8.13485495	      0.00000000	      8.55313649	      3.09169403	      6.07535323	      2.80502462	      0.04895692	     28.90177909	      5.81719331	      0.00000000	      0.37265398	     -0.16219135	     -1.66532428	      0.69205570	     -0.21571449	     -1.76940704	      0.61223322	     -0.39435205	     -1.76940704	      0.42590623	     -0.39435205	     -1.45715874	      0.34604648	     -0.33074060	     -1.35307597	      0.21293448	     -0.25123440	     -1.24899321	      2.66183010	     -1.83474098	     -9.26203402	      0.00000000	      0.00000000	     27.70385452	      3.33702381	     17.27579362	     18.61110068	     -8.30091064	     60.48247782	     46.63636657	     56.63964305	      4.79355779	     12.69358012	      8.11666077	    -10.47067178	     38.51168594	     56.65431948	     40.20180596	     -8.96286353	     22.00024592
      0.03333333	     -5.34916395	     -3.17731700	     96.38740325	      0.23678871	      0.72973538	      0.74861653	      5.17204416	     -2.71793614	    -12.88200906	      2.34547103	      0.04093619	     25.78318587	      4.18490167	      0.00000000	      8.70881575	      2.93290379	      2.88240381	      3.37784056	      0.05895444	     29.26279664	      9.28205112	      0.00000000	      0.37043839	     -0.20269467	     -1.44600797	      0.68794114	     -0.26958391	     -1.53638347	      0.60859324	     -0.49283182	     -1.53638347	      0.42337404	     -0.49283182	     -1.26525697	      0.34398909	     -0.41333497	     -1.17488147	      0.21166850	     -0.31397404	     -1.08450598	      2.64600440	     -2.29292262	     -8.04226251	      0.00000000	      0.00000000	     27.71458931	      3.20323596	     14.84554300	     18.79943398	     -8.34091880	     60.64305523	     47.43237437	     50.22155066	      4.16613227	     14.22159141	      9.37184344	    -10.38235133	     40.15618502	     56.14441987	     45.92680940	     -7.57240692	     28.67204035
      0.05000000	     -5.37421590	     -3.28429641	     95.78238631	      0.23837829	      0.72937950	      0.74885576	      5.47196456	     -2.67365727	    -12.59441007	      2.60541877	      0.04547314	     25.41408597	      3.97770724	      0.00000000	      8.88456366	      2.81046139	      2.21974145	      3.67853588	      0.06420256	     28.97187820	      9.16065681	      0.00000000	      0.38268840	     -0.21950773	     -1.38637369	      0.71069063	     -0.29194527	     -1.47302204	      0.62871878	     -0.53371108	     -1.47302204	      0.43737457	     -0.53371108	     -1.21307698	      0.35536445	     -0.44762015	     -1.12642862	      0.21866815	     -0.34001747	     -1.03978027	      2.73350498	     -2.48311529	     -7.71059455	      0.00000000	      0.00000000	     27.70623961	      3.85068282	     14.79895633	     18.91534128	     -8.41808841	     60.96360247	     47.93302316	     49.53617856	      4.77625184	     15.91642686	     10.29814302	    -10.95312890	     42.83343994	     56.34308708	     47.31461850	     -6.56881504	     31.42583075
      0.06666667	     -5.56470804	     -3.23596093	     94.85571852	      0.24049914	      0.72931232	      0.74902869	      5.62186735	     -2.67172749	     -9.30147651	      2.67544911	      0.04669540	     25.03589984	      0.98273299	      0.00000000	      8.88342186	      2.71679351	     -0.38281620	      4.02393813	      0.07023097	     29.07682817	     11.26489994	      0.00000000	      0.36493656	     -0.25717417	     -1.24596433	      0.67772369	     -0.34204164	     -1.32383710	      0.59955427	     -0.62529327	     -1.32383710	      0.41708599	     -0.62529327	     -1.09021879	      0.33888009	     -0.52442956	     -1.01234602	      0.20852475	     -0.39836278	     -0.93447325	      2.60670535	     -2.90920560	     -6.92967980	      0.00000000	      0.00000000	     27.67779578	      4.29101192	     14.18680748	     18.64374132	     -8.62493307	     61.14481966	     48.56370166	     44.22074155	      4.62308522	     19.27430674	     10.45583429	    -10.42815880	     40.97571712	     55.32493262	     68.12663742	      7.61521943	     32.16677196
      0.08333333	     -5.70623704	     -3.27347321	     94.15073568	      0.24234409	      0.72915861	      0.74883809	      5.79856950	     -2.68414322	     -8.05272903	      2.68393546	      0.04684351	     25.45106060	      0.84671767	      0.00000000	      8.85543764	      2.66711513	     -1.11912281	      4.12247250	      0.07195072	     28.79150178	     11.07500097	      0.00000000	      0.36776469	     -0.28511108	     -1.21551811	      0.68297580	     -0.37919774	     -1.29148799	      0.60420060	     -0.69321909	     -1.29148799	      0.42031826	     -0.69321909	     -1.06357834	      0.34150629	     -0.58139852	     -0.98760846	      0.21014074	     -0.44163707	     -0.91163858	      2.62690638	     -3.22523359	     -6.76034705	      0.00000000	      0.00000000	     27.66464598	      5.02869984	     14.31999293	     18.69641456	     -8.88944763	     62.49692036	     49.02376160	     40.75228094	      4.25978368	     22.39934583	     10.28444868	    -10.57760190	     40.55710992	     55.80229900	     76.97623925	     13.58465740	     31.22383547
      0.10000000	     -5.89228958	     -3.28042134	     93.47400231	      0.24408830	      0.72908281	      0.74866139	      5.93352868	     -2.76045399	     -7.30192943	      2.70454955	      0.04720329	     25.97064080	      1.32374887	      0.00000000	      8.78256129	      2.68120119	     -1.68657494	      4.21583929	      0.07358028	     28.44696057	     10.54076959	      0.00000000	      0.37184810	     -0.31324887	     -1.18914401	      0.69055910	     -0.41662100	     -1.26346552	      0.61090924	     -0.76163331	     -1.26346552	      0.42498519	     -0.76163331	     -1.04050101	      0.34529814	     -0.63877710	     -0.96617951	      0.21247400	     -0.48522250	     -0.89185801	      2.65607379	     -3.54353391	     -6.61366227	      0.00000000	      0.00000000	     27.67070697	      5.75349124	     14.66524439	     18.96933614	     -9.11460189	     64.03551364	     49.21032011	     40.12252924	      4.60309719	     24.57075639	     10.08079553	    -11.20776553	     41.21048276	     56.65070274	     77.91120828	     14.64381775	     29.85578374
      0.11666667	     -5.99679603	     -3.26248592	     92.89817450	      0.24545303	      0.72898878	      0.74826301	      6.00336982	     -2.78595241	     -7.18642170	      2.74216648	      0.04785983	     26.55474030	      2.39116481	      0.00000000	      8.57632084	      2.67869402	     -1.43153089	      4.10132205	      0.07158157	     28.01522772	      9.05097039	      0.00000000	      0.37499348	     -0.32102205	     -1.20280789	      0.69640040	     -0.42695932	     -1.27798338	      0.61607679	     -0.78053301	     -1.27798338	      0.42858005	     -0.78053301	     -1.05245690	      0.34821895	     -0.65462816	     -0.97728141	      0.21427128	     -0.49726315	     -0.90210592	      2.67854095	     -3.63146560	     -6.68965663	      0.00000000	      0.00000000	     27.66611085	      6.84649181	     16.15445625	     19.77968757	     -9.61277403	     67.15464778	     49.62138427	     36.16402716	      4.09663335	     25.55377684	      9.30356588	    -11.66025898	     40.49358852	     57.53797968	     80.40276028	     16.15720750	     26.87025757
      0.13333333	     -6.17888782	     -3.19138667	     92.35692399	      0.24676240	      0.72899301	      0.74798570	      6.01057756	     -2.90154192	     -7.00634137	      2.85129945	      0.04976456	     26.81926764	      3.02348661	      0.00000000	      8.35080508	      2.75243425	     -1.42386041	      4.05026918	      0.07069053	     27.52278132	      7.99187190	      0.00000000	      0.37037674	     -0.34101116	     -1.19359285	      0.68782665	     -0.45354484	     -1.26819240	      0.60849195	     -0.82913453	     -1.26819240	      0.42330358	     -0.82913453	     -1.04439374	      0.34393184	     -0.69538995	     -0.96979419	      0.21163327	     -0.52822628	     -0.89519464	      2.64556404	     -3.85758642	     -6.63840534	      0.00000000	      0.00000000	     27.67761330	      7.89313820	     17.02055095	     20.62601182	     -9.96107268	     69.70054432	     49.83727782	     37.07793709	      4.95514370	     24.91713568	      8.71874865	    -12.44114094	     40.65447563	     58.44190438	     78.61648690	     15.38900988	     24.01927329
